# xmcd
#
# Track frame offsets: 
#        150
#        18230
#        34350
#        50942
#        63155
#        76942
#        93485
#        107065
#        122912
#        137660
#        152040
#        164980
#        180070
#        195280
#        236927
#        253030
#        266815
#        282592
#        298675
#
# Disc length: 4175 seconds
#
# Revision: 3
# Processed by: cddbd v1.5.2PL0 Copyright (c) Steve Scherf et al.
# Submitted via: ExactAudioCopy v0.99pb4
#
DISCID=1b104d13
DTITLE=Artie Shaw - Self Portrait [CD2]
DYEAR=2001
DGENRE=Jazz
TTITLE0=At Sundown
TTITLE1=Sweet Sue (Just You)
TTITLE2=Man from Mars
TTITLE3=Diga Diga Doo
TTITLE4=Frenesi
TTITLE5=Gloomy Sunday
TTITLE6=Temptation
TTITLE7=Star Dust
TTITLE8=Blues [from "The Lenox Avenue Suite"] - Part 1
TTITLE9=Blues - Part 2
TTITLE10=Prelude in C Major
TTITLE11=Summit Ridge Drive
TTITLE12=Dr. Livingstone, I Presume
TTITLE13=Concerto for Clarinet
TTITLE14=Nobody Knows the Trouble I've Seen
TTITLE15=Dancing in the Dark
TTITLE16=I Cover the Waterfront
TTITLE17=Nocturne
TTITLE18=Blues in the Night
EXTD=Artie Shaw [Arthur Arshawsky] (1910-05-23/2004-12-30): clarinet, 
EXTD=bandleader\nTracks 12-13 credited as by "Artie Shaw and His Gramerc
EXTD=y 5" - other tracks on this disc, as by "Artie Shaw and His Orchestr
EXTD=a".\nVocalists: Pauline Byrne (6), Oran "Hot Lips" Page (19).\nCo
EXTD=mpilation produced by Orrin Keepnews - repertoire selected by Arti
EXTD=e Shaw.\n5CD: Bluebird/RCA 63808 (2001-10), UPC 090266380824.
EXTT0=
EXTT1=
EXTT2=
EXTT3=
EXTT4=
EXTT5=
EXTT6=
EXTT7=
EXTT8=
EXTT9=
EXTT10=
EXTT11=
EXTT12=
EXTT13=
EXTT14=
EXTT15=
EXTT16=
EXTT17=
EXTT18=
PLAYORDER=
